<svg xmlns="http://www.w3.org/2000/svg" viewBox="0 0 192 192" width="192" height="192">
  <rect width="192" height="192" rx="32" fill="#0a0a0a"/>
  <!-- Toile -->
  <g stroke="#E8192C" stroke-width="1.5" fill="none" opacity="0.3">
    <line x1="96" y1="20" x2="20" y2="96"/>
    <line x1="96" y1="20" x2="172" y2="96"/>
    <line x1="96" y1="20" x2="96" y2="172"/>
    <line x1="96" y1="20" x2="40" y2="155"/>
    <line x1="96" y1="20" x2="152" y2="155"/>
    <ellipse cx="96" cy="20" rx="40" ry="40"/>
    <ellipse cx="96" cy="20" rx="80" ry="80"/>
    <ellipse cx="96" cy="20" rx="120" ry="120"/>
  </g>
  <!-- Araignée stylisée -->
  <g fill="#E8192C">
    <!-- Corps -->
    <ellipse cx="96" cy="88" rx="18" ry="22"/>
    <!-- Tête -->
    <ellipse cx="96" cy="62" rx="13" ry="13"/>
    <!-- Yeux blancs -->
    <ellipse cx="90" cy="60" rx="5" ry="4" fill="white"/>
    <ellipse cx="102" cy="60" rx="5" ry="4" fill="white"/>
    <!-- Pattes gauche -->
    <line x1="78" y1="75" x2="48" y2="60" stroke="#E8192C" stroke-width="3" stroke-linecap="round"/>
    <line x1="78" y1="85" x2="44" y2="80" stroke="#E8192C" stroke-width="3" stroke-linecap="round"/>
    <line x1="78" y1="95" x2="48" y2="100" stroke="#E8192C" stroke-width="3" stroke-linecap="round"/>
    <line x1="80" y1="104" x2="52" y2="118" stroke="#E8192C" stroke-width="3" stroke-linecap="round"/>
    <!-- Pattes droite -->
    <line x1="114" y1="75" x2="144" y2="60" stroke="#E8192C" stroke-width="3" stroke-linecap="round"/>
    <line x1="114" y1="85" x2="148" y2="80" stroke="#E8192C" stroke-width="3" stroke-linecap="round"/>
    <line x1="114" y1="95" x2="144" y2="100" stroke="#E8192C" stroke-width="3" stroke-linecap="round"/>
    <line x1="112" y1="104" x2="140" y2="118" stroke="#E8192C" stroke-width="3" stroke-linecap="round"/>
  </g>
</svg>